<svg width="36" height="36" viewBox="0 0 36 36" fill="none" xmlns="http://www.w3.org/2000/svg">
<g clip-path="url(#clip0_246_242)">
<path d="M0 6C0 2.68629 2.68629 0 6 0H30C33.3137 0 36 2.68629 36 6V30C36 33.3137 33.3137 36 30 36H6C2.68629 36 0 33.3137 0 30V6Z" fill="#005CB3"/>
<path d="M15.6665 9.53557C15.4979 9.53557 15.3612 9.67227 15.3612 9.8409C15.3612 10.0095 15.4979 10.1462 15.6665 10.1462H18.2109C18.3796 10.1462 18.5163 10.0095 18.5163 9.8409C18.5163 9.67227 18.3796 9.53557 18.2109 9.53557H15.6665Z" fill="white"/>
<path d="M15.6665 25.8201C15.4979 25.8201 15.3612 25.9568 15.3612 26.1254C15.3612 26.2941 15.4979 26.4308 15.6665 26.4308H18.2109C18.3796 26.4308 18.5163 26.2941 18.5163 26.1254C18.5163 25.9568 18.3796 25.8201 18.2109 25.8201H15.6665Z" fill="white"/>
<path d="M10.2722 14.9298C10.2722 14.7612 10.4089 14.6245 10.5776 14.6245H13.122C13.2907 14.6245 13.4274 14.7612 13.4274 14.9298C13.4274 15.0985 13.2907 15.2352 13.122 15.2352H10.5776C10.4089 15.2352 10.2722 15.0985 10.2722 14.9298Z" fill="white"/>
<path d="M10.2722 26.1254C10.2722 25.9568 10.4089 25.8201 10.5776 25.8201H13.122C13.2907 25.8201 13.4274 25.9568 13.4274 26.1254C13.4274 26.2941 13.2907 26.4308 13.122 26.4308H10.5776C10.4089 26.4308 10.2722 26.2941 10.2722 26.1254Z" fill="white"/>
<path d="M20.944 15.164C20.9003 15.0011 20.997 14.8337 21.1599 14.79L23.6176 14.1315C23.7805 14.0878 23.9479 14.1845 23.9916 14.3474C24.0352 14.5103 23.9386 14.6777 23.7757 14.7213L21.3179 15.3799C21.155 15.4235 20.9876 15.3269 20.944 15.164Z" fill="white"/>
<path d="M23.8416 25.9781C23.7979 25.8152 23.8946 25.6478 24.0575 25.6042L26.5153 24.9456C26.6781 24.902 26.8456 24.9986 26.8892 25.1615C26.9329 25.3244 26.8362 25.4918 26.6733 25.5355L24.2156 26.194C24.0527 26.2377 23.8852 26.141 23.8416 25.9781Z" fill="white"/>
<path fill-rule="evenodd" clip-rule="evenodd" d="M14.3943 7.5C14.2256 7.5 14.0889 7.6367 14.0889 7.80534V12.5889H9.30534C9.1367 12.5889 9 12.7256 9 12.8943V28.161C9 28.3296 9.1367 28.4663 9.30534 28.4663L14.3943 28.4663C14.3946 28.4663 14.395 28.4663 14.3954 28.4663H19.4832C19.6518 28.4663 19.7885 28.3296 19.7885 28.161V15.7674L23.1396 28.2736C23.1832 28.4365 23.3506 28.5332 23.5135 28.4895L28.429 27.1724C28.5919 27.1288 28.6886 26.9613 28.6449 26.7985L24.6936 12.0519C24.65 11.889 24.4825 11.7923 24.3197 11.836L19.7885 13.0501V7.80534C19.7885 7.6367 19.6518 7.5 19.4832 7.5H14.3943ZM19.1778 13.4402V8.11067H14.6996V27.8557H19.1778V13.4555C19.1777 13.4504 19.1777 13.4453 19.1778 13.4402ZM14.0889 27.8557V13.1996H9.61067V27.8557H14.0889ZM19.8571 13.6639L23.6504 27.8206L27.9761 26.6616L24.1828 12.5049L19.8571 13.6639Z" fill="white"/>
</g>
<defs>
<clipPath id="clip0_246_242">
<rect width="36" height="36" fill="white"/>
</clipPath>
</defs>
</svg>
