<svg width="240" height="240" viewBox="0 0 240 240" fill="none" xmlns="http://www.w3.org/2000/svg">
<g clip-path="url(#clip0_287_78)">
<path fill-rule="evenodd" clip-rule="evenodd" d="M98 58C98 56.8954 98.8954 56 100 56H132C133.105 56 134 56.8954 134 58V178C134 179.105 133.105 180 132 180H100C98.8954 180 98 179.105 98 178V58ZM108 72C106.895 72 106 72.8954 106 74C106 75.1046 106.895 76 108 76H124C125.105 76 126 75.1046 126 74C126 72.8954 125.105 72 124 72H108ZM108 160C106.895 160 106 160.895 106 162C106 163.105 106.895 164 108 164H124C125.105 164 126 163.105 126 162C126 160.895 125.105 160 124 160H108Z" fill="#1E90FF"/>
<path fill-rule="evenodd" clip-rule="evenodd" d="M138.432 87.2324C137.365 87.5182 136.732 88.6149 137.018 89.6819L160.829 178.547C161.115 179.614 162.212 180.247 163.278 179.961L194.188 171.679C195.255 171.393 195.888 170.296 195.602 169.23L171.791 80.3644C171.505 79.2974 170.408 78.6643 169.341 78.9502L138.432 87.2324ZM148.887 103.066C148.601 101.999 149.234 100.902 150.301 100.616L165.756 96.475C166.823 96.1892 167.919 96.8223 168.205 97.8893C168.491 98.9562 167.858 100.053 166.791 100.339L151.336 104.48C150.269 104.766 149.173 104.133 148.887 103.066ZM164.416 161.021C164.13 159.954 164.763 158.857 165.83 158.571L181.285 154.43C182.352 154.144 183.449 154.777 183.735 155.844C184.02 156.911 183.387 158.008 182.32 158.294L166.866 162.435C165.799 162.721 164.702 162.088 164.416 161.021Z" fill="#1E90FF"/>
<path fill-rule="evenodd" clip-rule="evenodd" d="M60 84C58.8954 84 58 84.8954 58 86V178C58 179.105 58.8954 180 60 180H92C93.1046 180 94 179.105 94 178V86C94 84.8954 93.1046 84 92 84H60ZM66 102C66 100.895 66.8954 100 68 100H84C85.1046 100 86 100.895 86 102C86 103.105 85.1046 104 84 104H68C66.8954 104 66 103.105 66 102ZM66 162C66 160.895 66.8954 160 68 160H84C85.1046 160 86 160.895 86 162C86 163.105 85.1046 164 84 164H68C66.8954 164 66 163.105 66 162Z" fill="#1E90FF"/>
</g>
<defs>
<clipPath id="clip0_287_78">
<rect width="240" height="240" fill="white"/>
</clipPath>
</defs>
</svg>
