<svg width="138" height="124" viewBox="0 0 138 124" fill="none" xmlns="http://www.w3.org/2000/svg">
<g clip-path="url(#clip0_289_81)">
<path fill-rule="evenodd" clip-rule="evenodd" d="M40 2C40 0.895429 40.8954 0 42 0H74C75.1046 0 76 0.89543 76 2V122C76 123.105 75.1046 124 74 124H42C40.8954 124 40 123.105 40 122V2ZM50 16C48.8954 16 48 16.8954 48 18C48 19.1046 48.8954 20 50 20H66C67.1046 20 68 19.1046 68 18C68 16.8954 67.1046 16 66 16H50ZM50 104C48.8954 104 48 104.895 48 106C48 107.105 48.8954 108 50 108H66C67.1046 108 68 107.105 68 106C68 104.895 67.1046 104 66 104H50Z" fill="#1E90FF"/>
<path fill-rule="evenodd" clip-rule="evenodd" d="M80.4319 31.2324C79.3649 31.5182 78.7318 32.6149 79.0176 33.6819L102.829 122.547C103.115 123.614 104.212 124.247 105.278 123.961L136.188 115.679C137.255 115.393 137.888 114.296 137.602 113.23L113.791 24.3644C113.505 23.2974 112.408 22.6643 111.341 22.9502L80.4319 31.2324ZM90.8868 47.0656C90.6009 45.9987 91.2341 44.902 92.301 44.6161L107.756 40.475C108.823 40.1892 109.919 40.8223 110.205 41.8893C110.491 42.9562 109.858 44.0529 108.791 44.3387L93.3363 48.4799C92.2693 48.7657 91.1727 48.1326 90.8868 47.0656ZM106.416 105.021C106.13 103.954 106.763 102.857 107.83 102.571L123.285 98.4301C124.352 98.1442 125.449 98.7774 125.735 99.8443C126.02 100.911 125.387 102.008 124.32 102.294L108.866 106.435C107.799 106.721 106.702 106.088 106.416 105.021Z" fill="#1E90FF"/>
<path fill-rule="evenodd" clip-rule="evenodd" d="M2 28C0.895431 28 0 28.8954 0 30V122C0 123.105 0.895432 124 2 124H34C35.1046 124 36 123.105 36 122V30C36 28.8954 35.1046 28 34 28H2ZM8 46C8 44.8954 8.89543 44 10 44H26C27.1046 44 28 44.8954 28 46C28 47.1046 27.1046 48 26 48H10C8.89543 48 8 47.1046 8 46ZM8 106C8 104.895 8.89543 104 10 104H26C27.1046 104 28 104.895 28 106C28 107.105 27.1046 108 26 108H10C8.89543 108 8 107.105 8 106Z" fill="#1E90FF"/>
</g>
<defs>
<clipPath id="clip0_289_81">
<rect width="138" height="124" fill="white"/>
</clipPath>
</defs>
</svg>
