<?xml version="1.0" standalone="no"?>
<!DOCTYPE svg PUBLIC "-//W3C//DTD SVG 20010904//EN"
 "http://www.w3.org/TR/2001/REC-SVG-20010904/DTD/svg10.dtd">
<svg version="1.0" xmlns="http://www.w3.org/2000/svg"
 width="700.000000pt" height="700.000000pt" viewBox="0 0 700.000000 700.000000"
 preserveAspectRatio="xMidYMid meet">
<metadata>
Created by potrace 1.14, written by Peter Selinger 2001-2017
</metadata>
<g transform="translate(0.000000,700.000000) scale(0.100000,-0.100000)"
fill="#000000" stroke="none">
<path d="M1005 6989 c-258 -38 -484 -154 -670 -343 -183 -188 -288 -400 -325
-661 -13 -96 -13 -4874 0 -4970 76 -531 485 -936 1013 -1005 57 -7 842 -10
2532 -8 l2450 4 87 21 c215 54 397 155 554 308 192 188 306 413 344 680 6 45
10 936 10 2485 0 1549 -4 2440 -10 2485 -37 260 -150 488 -334 671 -185 186
-409 297 -671 333 -94 13 -4889 13 -4980 0z m2817 -1107 l23 -23 3 -2287 c1
-1258 0 -2302 -3 -2320 -3 -18 -15 -42 -26 -53 -18 -18 -38 -19 -658 -19 -614
0 -640 1 -662 19 l-24 19 -2 2309 c-2 1839 0 2313 10 2333 26 51 17 50 689 47
l627 -2 23 -23z m1449 -882 c10 -14 219 -777 474 -1729 506 -1894 474 -1745
391 -1775 -42 -16 -1106 -301 -1163 -312 -42 -8 -80 2 -92 24 -14 25 -921
3414 -921 3439 0 53 9 56 625 222 359 97 605 159 629 158 29 -2 44 -8 57 -27z
m-2976 -185 l25 -24 0 -1779 0 -1779 -21 -27 -20 -26 -642 0 -641 0 -23 22
-23 21 0 1784 0 1784 25 24 24 25 636 0 636 0 24 -25z"/>
<path d="M2818 5284 c-50 -27 -48 -106 2 -131 19 -9 107 -13 338 -13 340 0
365 4 378 55 10 39 -4 73 -36 90 -43 22 -641 22 -682 -1z"/>
<path d="M2806 1919 c-34 -27 -36 -77 -3 -107 23 -22 28 -22 358 -22 l336 0
21 23 c29 31 28 72 -3 102 l-24 25 -329 0 c-318 0 -330 -1 -356 -21z"/>
<path d="M4799 4294 c-357 -95 -346 -91 -369 -116 -41 -45 -7 -118 55 -118 18
0 167 36 332 80 316 85 333 92 333 149 0 35 -24 67 -53 73 -13 3 -147 -28
-298 -68z"/>
<path d="M5354 2074 c-270 -72 -312 -86 -332 -110 -41 -47 -8 -114 57 -114 60
1 622 157 645 179 38 39 16 113 -38 123 -12 3 -161 -33 -332 -78z"/>
<path d="M1294 4218 c-22 -10 -44 -47 -44 -72 0 -7 9 -25 21 -40 l20 -26 343
0 c331 0 344 1 361 20 28 31 24 79 -9 107 l-27 23 -322 -1 c-200 0 -330 -4
-343 -11z"/>
<path d="M1279 1921 c-17 -13 -23 -29 -23 -56 0 -27 6 -43 23 -56 22 -18 46
-19 351 -19 181 0 336 3 345 6 45 18 48 111 5 134 -11 6 -152 10 -348 10 -307
0 -331 -1 -353 -19z"/>
</g>
</svg>
