<svg width="48" height="48" viewBox="0 0 48 48" fill="none" xmlns="http://www.w3.org/2000/svg">
<g clip-path="url(#clip0_269_85)">
<path d="M0.0872727 36.0435C0.232713 35.8107 0.465425 35.7962 0.785455 35.9998C8.05815 40.218 15.9709 42.3271 24.5236 42.3271C30.2254 42.3271 35.8545 41.2653 41.4109 39.1416C41.5563 39.0835 41.7672 38.9962 42.0436 38.8798C42.32 38.7634 42.5163 38.6762 42.6327 38.618C43.0691 38.4435 43.4109 38.5307 43.6582 38.8798C43.9054 39.2289 43.8254 39.5489 43.4182 39.8398C42.8945 40.218 42.2254 40.6544 41.4109 41.1489C38.9091 42.6326 36.1163 43.7816 33.0327 44.5962C29.9491 45.4107 26.9382 45.818 24 45.818C19.4618 45.818 15.1709 45.0253 11.1273 43.4398C7.08362 41.8544 3.4618 39.6216 0.261818 36.7416C0.0872727 36.5962 0 36.4507 0 36.3053C0 36.218 0.0290618 36.1307 0.0872727 36.0435ZM13.2218 23.6071C13.2218 21.5998 13.7163 19.8835 14.7055 18.458C15.6945 17.0325 17.0472 15.9562 18.7636 15.2289C20.3345 14.5598 22.2691 14.0798 24.5673 13.7889C25.3527 13.7016 26.6327 13.5853 28.4073 13.4398V12.698C28.4073 10.8362 28.2036 9.58529 27.7964 8.94528C27.1855 8.07255 26.2255 7.63619 24.9164 7.63619H24.5673C23.6073 7.72346 22.7782 8.02891 22.08 8.55255C21.3818 9.07619 20.9309 9.80347 20.7273 10.7344C20.6109 11.3162 20.32 11.6507 19.8545 11.738L14.8364 11.1271C14.3418 11.0107 14.0945 10.7489 14.0945 10.3416C14.0945 10.2544 14.1091 10.1526 14.1382 10.0362C14.6327 7.44711 15.8472 5.52711 17.7818 4.27619C19.7163 3.02526 21.9782 2.32708 24.5673 2.18164H25.6582C28.9745 2.18164 31.5636 3.03984 33.4255 4.75619C33.7175 5.04842 33.9873 5.36202 34.2327 5.69437C34.48 6.02893 34.6763 6.3271 34.8218 6.58891C34.9673 6.85073 35.0982 7.22893 35.2145 7.72346C35.3309 8.21799 35.4182 8.55984 35.4764 8.74891C35.5345 8.93799 35.5782 9.34529 35.6073 9.97073C35.6363 10.5962 35.6509 10.9671 35.6509 11.0835V21.6435C35.6509 22.3998 35.76 23.0907 35.9782 23.7162C36.1964 24.3416 36.4073 24.7926 36.6109 25.0689C36.8145 25.3453 37.1491 25.7889 37.6145 26.3998C37.7891 26.6616 37.8764 26.8944 37.8764 27.098C37.8764 27.3307 37.76 27.5344 37.5273 27.7089C35.1127 29.8035 33.8036 30.938 33.6 31.1126C33.2509 31.3744 32.8291 31.4035 32.3345 31.1998C31.9272 30.8507 31.5709 30.5162 31.2655 30.1962C30.96 29.8762 30.7418 29.6434 30.6109 29.498C30.48 29.3526 30.2691 29.0689 29.9782 28.6471C29.6873 28.2253 29.4836 27.9416 29.3673 27.7962C27.7382 29.5707 26.1382 30.6762 24.5673 31.1126C23.5782 31.4035 22.3563 31.5489 20.9018 31.5489C18.6618 31.5489 16.8218 30.858 15.3818 29.4762C13.9418 28.0944 13.2218 26.138 13.2218 23.6071ZM20.7273 22.7344C20.7273 23.8689 21.0109 24.778 21.5782 25.4616C22.1455 26.1453 22.9091 26.4871 23.8691 26.4871C23.9564 26.4871 24.08 26.4726 24.24 26.4435C24.4 26.4144 24.5091 26.3998 24.5673 26.3998C25.7891 26.0798 26.7345 25.2944 27.4036 24.0435C27.7236 23.4907 27.9636 22.8871 28.1236 22.2326C28.2836 21.578 28.3709 21.0471 28.3855 20.6398C28.4 20.2326 28.4073 19.5634 28.4073 18.6326V17.5416C26.72 17.5416 25.44 17.658 24.5673 17.8907C22.0073 18.618 20.7273 20.2326 20.7273 22.7344ZM39.0545 36.7853C39.1127 36.6689 39.2 36.5526 39.3164 36.4362C40.0436 35.9417 40.7418 35.6071 41.4109 35.4326C42.5163 35.1416 43.5927 34.9817 44.64 34.9526C44.9309 34.9234 45.2073 34.938 45.4691 34.9962C46.7782 35.1126 47.5636 35.3307 47.8255 35.6507C47.9418 35.8253 48 36.0871 48 36.4362V36.7416C48 37.7598 47.7236 38.9598 47.1709 40.3416C46.6182 41.7235 45.8472 42.8362 44.8582 43.6798C44.7127 43.7962 44.5818 43.8544 44.4655 43.8544C44.4072 43.8544 44.3491 43.8398 44.2909 43.8107C44.1164 43.7235 44.0727 43.5634 44.16 43.3307C45.2363 40.7998 45.7745 39.0398 45.7745 38.0507C45.7745 37.7307 45.7163 37.498 45.6 37.3526C45.3091 37.0035 44.4945 36.8289 43.1564 36.8289C42.6618 36.8289 42.08 36.858 41.4109 36.9162C40.6836 37.0035 40.0145 37.0907 39.4036 37.178C39.2291 37.178 39.1127 37.1489 39.0545 37.0907C38.9963 37.0326 38.9818 36.9744 39.0109 36.9162C39.0109 36.8871 39.0254 36.8434 39.0545 36.7853Z" fill="black" fill-opacity="0.6"/>
</g>
<defs>
<clipPath id="clip0_269_85">
<rect width="48" height="48" fill="white"/>
</clipPath>
</defs>
</svg>
