<svg width="49" height="48" viewBox="0 0 49 48" fill="none" xmlns="http://www.w3.org/2000/svg">
<g clip-path="url(#clip0_269_87)">
<path d="M10.3252 1.22L36.5732 16.312L30.9472 21.938L10.3252 1.22ZM4.88724 0L28.9812 24L4.88924 48C3.66324 47.458 2.82324 46.252 2.82324 44.85C2.82324 44.804 2.82324 44.758 2.82524 44.714V44.72V3.282C2.82324 3.244 2.82324 3.198 2.82324 3.152C2.82324 1.75 3.66324 0.544 4.86724 0.01L4.88924 0.002L4.88724 0ZM44.7312 21.188C45.5592 21.802 46.0892 22.778 46.0892 23.876C46.0892 23.92 46.0892 23.962 46.0872 24.006V24C46.0952 24.086 46.1012 24.188 46.1012 24.29C46.1012 25.322 45.6012 26.238 44.8292 26.806L44.8212 26.812L39.1952 29.998L33.1032 24L39.1972 17.906L44.7312 21.188ZM10.3252 46.78L30.9492 26.062L36.5752 31.688L10.3252 46.78Z" fill="black" fill-opacity="0.6"/>
</g>
<defs>
<clipPath id="clip0_269_87">
<rect width="48" height="48" fill="white" transform="translate(0.823242)"/>
</clipPath>
</defs>
</svg>
