<svg width="4" height="9" viewBox="0 0 4 9" fill="none" xmlns="http://www.w3.org/2000/svg">
<path d="M2.3023 9C2.0703 9 1.8543 8.952 1.6543 8.856C1.4623 8.76 1.3663 8.616 1.3663 8.424V2.316L1.0183 2.532C0.962297 2.564 0.906297 2.588 0.850297 2.604C0.802297 2.62 0.758297 2.628 0.718297 2.628C0.542297 2.628 0.398297 2.552 0.286297 2.4C0.182297 2.24 0.130297 2.068 0.130297 1.884C0.130297 1.756 0.158297 1.636 0.214297 1.524C0.270297 1.412 0.358297 1.32 0.478297 1.248L2.0623 0.288C2.1103 0.256 2.1623 0.236 2.2183 0.228C2.2823 0.212 2.3463 0.204 2.4103 0.204C2.6023 0.204 2.7863 0.256 2.9623 0.36C3.1463 0.464 3.2383 0.608 3.2383 0.792V8.424C3.2383 8.616 3.1383 8.76 2.9383 8.856C2.7463 8.952 2.5343 9 2.3023 9Z" fill="black"/>
</svg>
