<svg width="7" height="10" viewBox="0 0 7 10" fill="none" xmlns="http://www.w3.org/2000/svg">
<path d="M3.84292 9.072C3.33092 9.072 2.89092 9.004 2.52292 8.868C2.16292 8.724 1.86692 8.54 1.63492 8.316C1.41092 8.092 1.24692 7.848 1.14292 7.584C1.03892 7.312 0.986922 7.052 0.986922 6.804C0.986922 6.532 1.05092 6.352 1.17892 6.264C1.31492 6.168 1.54692 6.12 1.87492 6.12C2.25892 6.12 2.51492 6.168 2.64292 6.264C2.77092 6.352 2.83492 6.512 2.83492 6.744C2.83492 6.888 2.86292 7.004 2.91892 7.092C2.98292 7.18 3.06292 7.252 3.15892 7.308C3.26292 7.356 3.37892 7.392 3.50692 7.416C3.63492 7.432 3.76692 7.44 3.90292 7.44C4.31092 7.44 4.59492 7.36 4.75492 7.2C4.92292 7.032 5.00692 6.752 5.00692 6.36V6.132C5.00692 5.732 4.89492 5.472 4.67092 5.352C4.45492 5.232 4.18292 5.172 3.85492 5.172C3.65492 5.172 3.51492 5.096 3.43492 4.944C3.35492 4.792 3.31492 4.628 3.31492 4.452C3.31492 4.268 3.35492 4.104 3.43492 3.96C3.51492 3.808 3.65492 3.732 3.85492 3.732C4.00692 3.732 4.15492 3.716 4.29892 3.684C4.44292 3.644 4.55892 3.552 4.64692 3.408C4.74292 3.256 4.79092 3.02 4.79092 2.7C4.79092 2.348 4.70292 2.116 4.52692 2.004C4.35892 1.892 4.15092 1.836 3.90292 1.836C3.75892 1.836 3.63092 1.848 3.51892 1.872C3.40692 1.888 3.31092 1.92 3.23092 1.968C3.15892 2.016 3.10292 2.08 3.06292 2.16C3.03092 2.232 3.01492 2.328 3.01492 2.448C3.01492 2.648 2.95492 2.812 2.83492 2.94C2.72292 3.068 2.49092 3.132 2.13892 3.132C1.85092 3.132 1.63892 3.112 1.50292 3.072C1.36692 3.024 1.27492 2.944 1.22692 2.832C1.18692 2.72 1.16692 2.568 1.16692 2.376C1.16692 2.144 1.21092 1.904 1.29892 1.656C1.39492 1.4 1.54692 1.164 1.75492 0.948C1.97092 0.732 2.25492 0.56 2.60692 0.431999C2.95892 0.296 3.39092 0.228 3.90292 0.228C4.41492 0.228 4.87092 0.296 5.27092 0.431999C5.67092 0.568 5.98692 0.796 6.21892 1.116C6.45892 1.428 6.57892 1.856 6.57892 2.4C6.57892 2.84 6.49892 3.244 6.33892 3.612C6.18692 3.98 5.95892 4.232 5.65492 4.368C6.00692 4.496 6.29892 4.7 6.53092 4.98C6.76292 5.26 6.87892 5.644 6.87892 6.132V6.36C6.87892 7.016 6.74292 7.544 6.47092 7.944C6.19892 8.336 5.83092 8.624 5.36692 8.808C4.91092 8.984 4.40292 9.072 3.84292 9.072Z" fill="black"/>
</svg>
