<svg width="6" height="9" viewBox="0 0 6 9" fill="none" xmlns="http://www.w3.org/2000/svg">
<path d="M0.992391 9C0.824391 9 0.644391 8.948 0.452391 8.844C0.268391 8.74 0.176391 8.6 0.176391 8.424V7.26C0.176391 6.948 0.264391 6.656 0.440391 6.384C0.624391 6.104 0.860391 5.844 1.14839 5.604C1.43639 5.356 1.74039 5.116 2.06039 4.884C2.38839 4.652 2.69239 4.424 2.97239 4.2C3.26039 3.968 3.49639 3.736 3.68039 3.504C3.86439 3.272 3.95639 3.028 3.95639 2.772C3.95639 2.644 3.92439 2.516 3.86039 2.388C3.80439 2.252 3.70839 2.14 3.57239 2.052C3.44439 1.964 3.26839 1.92 3.04439 1.92C2.80439 1.92 2.59239 1.988 2.40839 2.124C2.23239 2.26 2.14439 2.492 2.14439 2.82C2.14439 2.996 2.05639 3.156 1.88039 3.3C1.70439 3.436 1.46439 3.504 1.16039 3.504C0.920391 3.504 0.720391 3.436 0.560391 3.3C0.400391 3.164 0.320391 2.908 0.320391 2.532C0.320391 2.044 0.448391 1.628 0.704391 1.284C0.968391 0.94 1.30839 0.68 1.72439 0.504C2.14039 0.32 2.57639 0.228 3.03239 0.228C3.49639 0.228 3.94039 0.324 4.36439 0.516C4.79639 0.708 5.14839 0.988 5.42039 1.356C5.69239 1.724 5.82839 2.176 5.82839 2.712C5.82839 3.144 5.73639 3.532 5.55239 3.876C5.37639 4.22 5.14839 4.532 4.86839 4.812C4.58839 5.084 4.28839 5.332 3.96839 5.556C3.65639 5.78 3.36039 5.988 3.08039 6.18C2.80039 6.364 2.56839 6.544 2.38439 6.72C2.20839 6.896 2.12039 7.076 2.12039 7.26V7.368H5.26439C5.41639 7.368 5.54839 7.448 5.66039 7.608C5.77239 7.768 5.82839 7.956 5.82839 8.172C5.82839 8.388 5.77239 8.58 5.66039 8.748C5.54839 8.916 5.41639 9 5.26439 9H0.992391Z" fill="black"/>
</svg>
